<?xml version="1.0" encoding="UTF-8" standalone="no"?>
<!DOCTYPE svg PUBLIC "-//W3C//DTD SVG 1.1//EN"
 "http://www.w3.org/Graphics/SVG/1.1/DTD/svg11.dtd">
<!-- Generated by graphviz version 2.38.0 (20140413.2041)
 -->
<!-- Title: G Pages: 1 -->
<svg width="872pt" height="816pt"
 viewBox="0.00 0.00 872.09 816.00" xmlns="http://www.w3.org/2000/svg" xmlns:xlink="http://www.w3.org/1999/xlink">
<g id="graph0" class="graph" transform="scale(1 1) rotate(0) translate(4 812)">
<title>G</title>
<polygon fill="white" stroke="none" points="-4,4 -4,-812 868.091,-812 868.091,4 -4,4"/>
<g id="clust1" class="cluster"><title>cluster_Global</title>
<path fill="none" stroke="gray" d="M152.091,-8C152.091,-8 844.091,-8 844.091,-8 850.091,-8 856.091,-14 856.091,-20 856.091,-20 856.091,-788 856.091,-788 856.091,-794 850.091,-800 844.091,-800 844.091,-800 152.091,-800 152.091,-800 146.091,-800 140.091,-794 140.091,-788 140.091,-788 140.091,-20 140.091,-20 140.091,-14 146.091,-8 152.091,-8"/>
<text text-anchor="middle" x="498.091" y="-787.2" font-family="Times New Roman,serif" font-size="11.00" fill="gray">Global</text>
</g>
<g id="clust2" class="cluster"><title>cluster_\League</title>
<path fill="none" stroke="gray" d="M160.091,-16C160.091,-16 836.091,-16 836.091,-16 842.091,-16 848.091,-22 848.091,-28 848.091,-28 848.091,-760 848.091,-760 848.091,-766 842.091,-772 836.091,-772 836.091,-772 160.091,-772 160.091,-772 154.091,-772 148.091,-766 148.091,-760 148.091,-760 148.091,-28 148.091,-28 148.091,-22 154.091,-16 160.091,-16"/>
<text text-anchor="middle" x="498.091" y="-759.2" font-family="Times New Roman,serif" font-size="11.00" fill="gray">League</text>
</g>
<g id="clust3" class="cluster"><title>cluster_\League\FactoryMuffin</title>
<path fill="none" stroke="gray" d="M168.091,-24C168.091,-24 828.091,-24 828.091,-24 834.091,-24 840.091,-30 840.091,-36 840.091,-36 840.091,-732 840.091,-732 840.091,-738 834.091,-744 828.091,-744 828.091,-744 168.091,-744 168.091,-744 162.091,-744 156.091,-738 156.091,-732 156.091,-732 156.091,-36 156.091,-36 156.091,-30 162.091,-24 168.091,-24"/>
<text text-anchor="middle" x="498.091" y="-731.2" font-family="Times New Roman,serif" font-size="11.00" fill="gray">FactoryMuffin</text>
</g>
<g id="clust4" class="cluster"><title>cluster_\League\FactoryMuffin\Exceptions</title>
<path fill="none" stroke="gray" d="M176.091,-428C176.091,-428 820.091,-428 820.091,-428 826.091,-428 832.091,-434 832.091,-440 832.091,-440 832.091,-704 832.091,-704 832.091,-710 826.091,-716 820.091,-716 820.091,-716 176.091,-716 176.091,-716 170.091,-716 164.091,-710 164.091,-704 164.091,-704 164.091,-440 164.091,-440 164.091,-434 170.091,-428 176.091,-428"/>
<text text-anchor="middle" x="498.091" y="-703.2" font-family="Times New Roman,serif" font-size="11.00" fill="gray">Exceptions</text>
</g>
<g id="clust5" class="cluster"><title>cluster_\League\FactoryMuffin\Generators</title>
<path fill="none" stroke="gray" d="M409.591,-186C409.591,-186 746.091,-186 746.091,-186 752.091,-186 758.091,-192 758.091,-198 758.091,-198 758.091,-408 758.091,-408 758.091,-414 752.091,-420 746.091,-420 746.091,-420 409.591,-420 409.591,-420 403.591,-420 397.591,-414 397.591,-408 397.591,-408 397.591,-198 397.591,-198 397.591,-192 403.591,-186 409.591,-186"/>
<text text-anchor="middle" x="577.841" y="-407.2" font-family="Times New Roman,serif" font-size="11.00" fill="gray">Generators</text>
</g>
<!-- \\League\\FactoryMuffin\\Exceptions\\DeleteFailedException -->
<g id="node1" class="node"><title>\\League\\FactoryMuffin\\Exceptions\\DeleteFailedException</title>
<polygon fill="none" stroke="black" points="526.591,-634 368.591,-634 368.591,-598 526.591,-598 526.591,-634"/>
<text text-anchor="middle" x="447.591" y="-613.2" font-family="Courier,monospace" font-size="11.00">DeleteFailedException</text>
</g>
<!-- \\League\\FactoryMuffin\\Exceptions\\ModelException -->
<g id="node6" class="node"><title>\\League\\FactoryMuffin\\Exceptions\\ModelException</title>
<polygon fill="none" stroke="black" points="283.091,-553 172.091,-553 172.091,-517 283.091,-517 283.091,-553"/>
<text text-anchor="middle" x="227.591" y="-532.2" font-family="Courier,monospace" font-size="11.00">ModelException</text>
</g>
<!-- \\League\\FactoryMuffin\\Exceptions\\DeleteFailedException&#45;&gt;\\League\\FactoryMuffin\\Exceptions\\ModelException -->
<g id="edge1" class="edge"><title>\\League\\FactoryMuffin\\Exceptions\\DeleteFailedException&#45;&gt;\\League\\FactoryMuffin\\Exceptions\\ModelException</title>
<path fill="none" stroke="black" d="M381.8,-597.904C372.775,-595.087 363.663,-592.082 355.091,-589 328.923,-579.59 300.385,-567.567 277.049,-557.255"/>
<polygon fill="none" stroke="black" points="278.279,-553.971 267.72,-553.102 275.432,-560.366 278.279,-553.971"/>
</g>
<!-- \\League\\FactoryMuffin\\Exceptions\\DeleteMethodNotFoundException -->
<g id="node2" class="node"><title>\\League\\FactoryMuffin\\Exceptions\\DeleteMethodNotFoundException</title>
<polygon fill="none" stroke="black" points="824.091,-688 612.091,-688 612.091,-652 824.091,-652 824.091,-688"/>
<text text-anchor="middle" x="718.091" y="-667.2" font-family="Courier,monospace" font-size="11.00">DeleteMethodNotFoundException</text>
</g>
<!-- \\League\\FactoryMuffin\\Exceptions\\MethodNotFoundException -->
<g id="node5" class="node"><title>\\League\\FactoryMuffin\\Exceptions\\MethodNotFoundException</title>
<polygon fill="none" stroke="black" points="533.591,-688 361.591,-688 361.591,-652 533.591,-652 533.591,-688"/>
<text text-anchor="middle" x="447.591" y="-667.2" font-family="Courier,monospace" font-size="11.00">MethodNotFoundException</text>
</g>
<!-- \\League\\FactoryMuffin\\Exceptions\\DeleteMethodNotFoundException&#45;&gt;\\League\\FactoryMuffin\\Exceptions\\MethodNotFoundException -->
<g id="edge2" class="edge"><title>\\League\\FactoryMuffin\\Exceptions\\DeleteMethodNotFoundException&#45;&gt;\\League\\FactoryMuffin\\Exceptions\\MethodNotFoundException</title>
<path fill="none" stroke="black" d="M611.743,-670C589.421,-670 565.98,-670 544.049,-670"/>
<polygon fill="none" stroke="black" points="543.754,-666.5 533.754,-670 543.754,-673.5 543.754,-666.5"/>
</g>
<!-- \\League\\FactoryMuffin\\Exceptions\\DeletingFailedException -->
<g id="node3" class="node"><title>\\League\\FactoryMuffin\\Exceptions\\DeletingFailedException</title>
<polygon fill="none" stroke="black" points="804.091,-526 632.091,-526 632.091,-490 804.091,-490 804.091,-526"/>
<text text-anchor="middle" x="718.091" y="-505.2" font-family="Courier,monospace" font-size="11.00">DeletingFailedException</text>
</g>
<!-- \\Exception -->
<g id="node19" class="node"><title>\\Exception</title>
<ellipse fill="none" stroke="black" cx="50.0456" cy="-351" rx="50.0912" ry="18"/>
<text text-anchor="middle" x="50.0456" y="-347.3" font-family="Times New Roman,serif" font-size="14.00" fill="gray">\Exception</text>
</g>
<!-- \\League\\FactoryMuffin\\Exceptions\\DeletingFailedException&#45;&gt;\\Exception -->
<g id="edge3" class="edge"><title>\\League\\FactoryMuffin\\Exceptions\\DeletingFailedException&#45;&gt;\\Exception</title>
<path fill="none" stroke="black" d="M632.031,-495.133C624.66,-491.465 617.836,-486.834 612.091,-481 516.185,-383.607 640.739,-274.485 540.091,-182 509.798,-154.164 487.649,-180.921 448.591,-168"/>
</g>
<!-- \\League\\FactoryMuffin\\Exceptions\\DirectoryNotFoundException -->
<g id="node4" class="node"><title>\\League\\FactoryMuffin\\Exceptions\\DirectoryNotFoundException</title>
<polygon fill="none" stroke="black" points="814.091,-472 622.091,-472 622.091,-436 814.091,-436 814.091,-472"/>
<text text-anchor="middle" x="718.091" y="-451.2" font-family="Courier,monospace" font-size="11.00">DirectoryNotFoundException</text>
</g>
<!-- \\League\\FactoryMuffin\\Exceptions\\DirectoryNotFoundException&#45;&gt;\\Exception -->
<g id="edge4" class="edge"><title>\\League\\FactoryMuffin\\Exceptions\\DirectoryNotFoundException&#45;&gt;\\Exception</title>
<path fill="none" stroke="black" d="M627.99,-435.962C622.199,-432.618 616.809,-428.666 612.091,-424 532.313,-345.085 624.697,-255.716 540.091,-182 509.073,-154.974 486.002,-185.115 448.591,-168"/>
<path fill="none" stroke="black" d="M446.591,-168C304.395,-102.949 134.009,-262.184 73.6141,-325.979"/>
<polygon fill="none" stroke="black" points="70.7487,-323.919 66.4793,-333.615 75.8637,-328.698 70.7487,-323.919"/>
</g>
<!-- \\League\\FactoryMuffin\\Exceptions\\MethodNotFoundException&#45;&gt;\\League\\FactoryMuffin\\Exceptions\\ModelException -->
<g id="edge5" class="edge"><title>\\League\\FactoryMuffin\\Exceptions\\MethodNotFoundException&#45;&gt;\\League\\FactoryMuffin\\Exceptions\\ModelException</title>
<path fill="none" stroke="black" d="M374.492,-651.892C367.778,-649.27 361.206,-646.315 355.091,-643 315.004,-621.266 276.24,-585.252 252.419,-560.845"/>
<polygon fill="none" stroke="black" points="254.68,-558.146 245.227,-553.361 249.632,-562.996 254.68,-558.146"/>
</g>
<!-- \\League\\FactoryMuffin\\Exceptions\\ModelException&#45;&gt;\\Exception -->
<g id="edge6" class="edge"><title>\\League\\FactoryMuffin\\Exceptions\\ModelException&#45;&gt;\\Exception</title>
<path fill="none" stroke="black" d="M209.117,-516.685C177.379,-483.418 110.252,-413.058 74.5417,-375.628"/>
<polygon fill="none" stroke="black" points="76.8578,-372.985 67.4225,-368.166 71.793,-377.817 76.8578,-372.985"/>
</g>
<!-- \\League\\FactoryMuffin\\Exceptions\\ModelNotFoundException -->
<g id="node7" class="node"><title>\\League\\FactoryMuffin\\Exceptions\\ModelNotFoundException</title>
<polygon fill="none" stroke="black" points="530.091,-580 365.091,-580 365.091,-544 530.091,-544 530.091,-580"/>
<text text-anchor="middle" x="447.591" y="-559.2" font-family="Courier,monospace" font-size="11.00">ModelNotFoundException</text>
</g>
<!-- \\League\\FactoryMuffin\\Exceptions\\ModelNotFoundException&#45;&gt;\\League\\FactoryMuffin\\Exceptions\\ModelException -->
<g id="edge7" class="edge"><title>\\League\\FactoryMuffin\\Exceptions\\ModelNotFoundException&#45;&gt;\\League\\FactoryMuffin\\Exceptions\\ModelException</title>
<path fill="none" stroke="black" d="M364.796,-551.869C341.222,-548.95 315.835,-545.805 293.44,-543.032"/>
<polygon fill="none" stroke="black" points="293.733,-539.541 283.379,-541.786 292.873,-546.488 293.733,-539.541"/>
</g>
<!-- \\League\\FactoryMuffin\\Exceptions\\NoDefinedFactoryException -->
<g id="node8" class="node"><title>\\League\\FactoryMuffin\\Exceptions\\NoDefinedFactoryException</title>
<polygon fill="none" stroke="black" points="540.091,-526 355.091,-526 355.091,-490 540.091,-490 540.091,-526"/>
<text text-anchor="middle" x="447.591" y="-505.2" font-family="Courier,monospace" font-size="11.00">NoDefinedFactoryException</text>
</g>
<!-- \\League\\FactoryMuffin\\Exceptions\\NoDefinedFactoryException&#45;&gt;\\League\\FactoryMuffin\\Exceptions\\ModelException -->
<g id="edge8" class="edge"><title>\\League\\FactoryMuffin\\Exceptions\\NoDefinedFactoryException&#45;&gt;\\League\\FactoryMuffin\\Exceptions\\ModelException</title>
<path fill="none" stroke="black" d="M355.087,-519.333C334.25,-521.914 312.537,-524.603 293.102,-527.01"/>
<polygon fill="none" stroke="black" points="292.657,-523.538 283.163,-528.241 293.518,-530.485 292.657,-523.538"/>
</g>
<!-- \\League\\FactoryMuffin\\Exceptions\\SaveFailedException -->
<g id="node9" class="node"><title>\\League\\FactoryMuffin\\Exceptions\\SaveFailedException</title>
<polygon fill="none" stroke="black" points="520.091,-472 375.091,-472 375.091,-436 520.091,-436 520.091,-472"/>
<text text-anchor="middle" x="447.591" y="-451.2" font-family="Courier,monospace" font-size="11.00">SaveFailedException</text>
</g>
<!-- \\League\\FactoryMuffin\\Exceptions\\SaveFailedException&#45;&gt;\\League\\FactoryMuffin\\Exceptions\\ModelException -->
<g id="edge9" class="edge"><title>\\League\\FactoryMuffin\\Exceptions\\SaveFailedException&#45;&gt;\\League\\FactoryMuffin\\Exceptions\\ModelException</title>
<path fill="none" stroke="black" d="M381.8,-472.096C372.775,-474.913 363.663,-477.918 355.091,-481 328.923,-490.41 300.385,-502.433 277.049,-512.745"/>
<polygon fill="none" stroke="black" points="275.432,-509.634 267.72,-516.898 278.279,-516.029 275.432,-509.634"/>
</g>
<!-- \\League\\FactoryMuffin\\Exceptions\\SaveMethodNotFoundException -->
<g id="node10" class="node"><title>\\League\\FactoryMuffin\\Exceptions\\SaveMethodNotFoundException</title>
<polygon fill="none" stroke="black" points="817.591,-634 618.591,-634 618.591,-598 817.591,-598 817.591,-634"/>
<text text-anchor="middle" x="718.091" y="-613.2" font-family="Courier,monospace" font-size="11.00">SaveMethodNotFoundException</text>
</g>
<!-- \\League\\FactoryMuffin\\Exceptions\\SaveMethodNotFoundException&#45;&gt;\\League\\FactoryMuffin\\Exceptions\\MethodNotFoundException -->
<g id="edge10" class="edge"><title>\\League\\FactoryMuffin\\Exceptions\\SaveMethodNotFoundException&#45;&gt;\\League\\FactoryMuffin\\Exceptions\\MethodNotFoundException</title>
<path fill="none" stroke="black" d="M627.311,-634.056C600.427,-639.463 570.862,-645.409 543.65,-650.882"/>
<polygon fill="none" stroke="black" points="542.854,-647.472 533.741,-652.875 544.235,-654.334 542.854,-647.472"/>
</g>
<!-- \\League\\FactoryMuffin\\Generators\\Base -->
<g id="node11" class="node"><title>\\League\\FactoryMuffin\\Generators\\Base</title>
<polygon fill="none" stroke="black" points="489.591,-311 405.591,-311 405.591,-275 489.591,-275 489.591,-311"/>
<text text-anchor="start" x="413.591" y="-296.2" font-family="Courier,monospace" font-size="11.00">«abstract»</text>
<text text-anchor="start" x="433.591" y="-284.2" font-family="Courier,monospace" font-size="11.00">Base</text>
</g>
<!-- \\League\\FactoryMuffin\\Generators\\Call -->
<g id="node12" class="node"><title>\\League\\FactoryMuffin\\Generators\\Call</title>
<polygon fill="none" stroke="black" points="745.091,-284 691.091,-284 691.091,-248 745.091,-248 745.091,-284"/>
<text text-anchor="middle" x="718.091" y="-263.2" font-family="Courier,monospace" font-size="11.00">Call</text>
</g>
<!-- \\League\\FactoryMuffin\\Generators\\Call&#45;&gt;\\League\\FactoryMuffin\\Generators\\Base -->
<g id="edge11" class="edge"><title>\\League\\FactoryMuffin\\Generators\\Call&#45;&gt;\\League\\FactoryMuffin\\Generators\\Base</title>
<path fill="none" stroke="black" d="M690.857,-268.638C646.758,-273.073 557.009,-282.098 499.993,-287.831"/>
<polygon fill="none" stroke="black" points="499.346,-284.378 489.746,-288.861 500.046,-291.343 499.346,-284.378"/>
</g>
<!-- \\League\\FactoryMuffin\\Generators\\Closure -->
<g id="node13" class="node"><title>\\League\\FactoryMuffin\\Generators\\Closure</title>
<polygon fill="none" stroke="black" points="750.091,-230 686.091,-230 686.091,-194 750.091,-194 750.091,-230"/>
<text text-anchor="middle" x="718.091" y="-209.2" font-family="Courier,monospace" font-size="11.00">Closure</text>
</g>
<!-- \\League\\FactoryMuffin\\Generators\\Closure&#45;&gt;\\League\\FactoryMuffin\\Generators\\Base -->
<g id="edge12" class="edge"><title>\\League\\FactoryMuffin\\Generators\\Closure&#45;&gt;\\League\\FactoryMuffin\\Generators\\Base</title>
<path fill="none" stroke="black" d="M685.698,-219.486C664.753,-224.625 636.654,-231.794 612.091,-239 574.008,-250.172 531.45,-264.28 499.302,-275.274"/>
<polygon fill="none" stroke="black" points="497.997,-272.021 489.676,-278.579 500.271,-278.642 497.997,-272.021"/>
</g>
<!-- \\League\\FactoryMuffin\\Generators\\Factory -->
<g id="node14" class="node"><title>\\League\\FactoryMuffin\\Generators\\Factory</title>
<polygon fill="none" stroke="black" points="750.091,-392 686.091,-392 686.091,-356 750.091,-356 750.091,-392"/>
<text text-anchor="middle" x="718.091" y="-371.2" font-family="Courier,monospace" font-size="11.00">Factory</text>
</g>
<!-- \\League\\FactoryMuffin\\Generators\\Factory&#45;&gt;\\League\\FactoryMuffin\\Generators\\Base -->
<g id="edge13" class="edge"><title>\\League\\FactoryMuffin\\Generators\\Factory&#45;&gt;\\League\\FactoryMuffin\\Generators\\Base</title>
<path fill="none" stroke="black" d="M685.698,-366.514C664.753,-361.375 636.654,-354.206 612.091,-347 574.008,-335.828 531.45,-321.72 499.302,-310.726"/>
<polygon fill="none" stroke="black" points="500.271,-307.358 489.676,-307.421 497.997,-313.979 500.271,-307.358"/>
</g>
<!-- \\League\\FactoryMuffin\\Generators\\Generic -->
<g id="node15" class="node"><title>\\League\\FactoryMuffin\\Generators\\Generic</title>
<polygon fill="none" stroke="black" points="750.091,-338 686.091,-338 686.091,-302 750.091,-302 750.091,-338"/>
<text text-anchor="middle" x="718.091" y="-317.2" font-family="Courier,monospace" font-size="11.00">Generic</text>
</g>
<!-- \\League\\FactoryMuffin\\Generators\\Generic&#45;&gt;\\League\\FactoryMuffin\\Generators\\Base -->
<g id="edge14" class="edge"><title>\\League\\FactoryMuffin\\Generators\\Generic&#45;&gt;\\League\\FactoryMuffin\\Generators\\Base</title>
<path fill="none" stroke="black" d="M686.028,-316.876C640.509,-312.299 555.137,-303.714 500.126,-298.182"/>
<polygon fill="none" stroke="black" points="500.187,-294.671 489.886,-297.153 499.486,-301.636 500.187,-294.671"/>
</g>
<!-- \\League\\FactoryMuffin\\Arr -->
<g id="node16" class="node"><title>\\League\\FactoryMuffin\\Arr</title>
<polygon fill="none" stroke="black" points="745.091,-176 691.091,-176 691.091,-140 745.091,-140 745.091,-176"/>
<text text-anchor="middle" x="718.091" y="-155.2" font-family="Courier,monospace" font-size="11.00">Arr</text>
</g>
<!-- \\League\\FactoryMuffin\\Facade -->
<g id="node17" class="node"><title>\\League\\FactoryMuffin\\Facade</title>
<polygon fill="none" stroke="black" points="746.591,-122 689.591,-122 689.591,-86 746.591,-86 746.591,-122"/>
<text text-anchor="middle" x="718.091" y="-101.2" font-family="Courier,monospace" font-size="11.00">Facade</text>
</g>
<!-- \\League\\FactoryMuffin\\Factory -->
<g id="node18" class="node"><title>\\League\\FactoryMuffin\\Factory</title>
<polygon fill="none" stroke="black" points="750.091,-68 686.091,-68 686.091,-32 750.091,-32 750.091,-68"/>
<text text-anchor="middle" x="718.091" y="-47.2" font-family="Courier,monospace" font-size="11.00">Factory</text>
</g>
</g>
</svg>
